<mxfile host="app.diagrams.net" agent="Mozilla/5.0 (Windows NT 10.0; Win64; x64) AppleWebKit/537.36 (KHTML, like Gecko) Chrome/137.0.0.0 Safari/537.36 Edg/137.0.0.0" version="27.1.6">
  <diagram name="Page-1" id="XzQrEf8pVbUUx3NtKFNc">
    <mxGraphModel dx="1418" dy="906" grid="1" gridSize="10" guides="1" tooltips="1" connect="1" arrows="1" fold="1" page="1" pageScale="1" pageWidth="850" pageHeight="1100" math="0" shadow="0">
      <root>
        <mxCell id="0" />
        <mxCell id="1" parent="0" />
        <mxCell id="ICeZ7vTdWkQgAfXyAcjh-1" value="" style="group;strokeColor=none;strokeWidth=1;fontSize=12;" vertex="1" connectable="0" parent="1">
          <mxGeometry x="290" y="240" width="80" height="80" as="geometry" />
        </mxCell>
        <mxCell id="ICeZ7vTdWkQgAfXyAcjh-2" value="" style="group;fillColor=none;strokeColor=none;" vertex="1" connectable="0" parent="ICeZ7vTdWkQgAfXyAcjh-1">
          <mxGeometry width="80" height="80" as="geometry" />
        </mxCell>
        <mxCell id="ICeZ7vTdWkQgAfXyAcjh-3" value="" style="group;strokeColor=none;" vertex="1" connectable="0" parent="ICeZ7vTdWkQgAfXyAcjh-1">
          <mxGeometry width="80" height="80" as="geometry" />
        </mxCell>
        <mxCell id="ICeZ7vTdWkQgAfXyAcjh-4" value="" style="whiteSpace=wrap;html=1;aspect=fixed;fillColor=none;strokeColor=none;" vertex="1" parent="ICeZ7vTdWkQgAfXyAcjh-1">
          <mxGeometry width="80" height="80" as="geometry" />
        </mxCell>
        <mxCell id="ICeZ7vTdWkQgAfXyAcjh-5" value="" style="endArrow=none;html=1;exitX=0;exitY=0.5;exitDx=0;exitDy=0;entryX=1;entryY=0.5;entryDx=0;entryDy=0;strokeWidth=10;fillColor=#e3c800;strokeColor=#000000;rounded=0;" edge="1" parent="ICeZ7vTdWkQgAfXyAcjh-1" source="ICeZ7vTdWkQgAfXyAcjh-4" target="ICeZ7vTdWkQgAfXyAcjh-4">
          <mxGeometry width="50" height="50" relative="1" as="geometry">
            <mxPoint x="160" y="110" as="sourcePoint" />
            <mxPoint x="210" y="60" as="targetPoint" />
          </mxGeometry>
        </mxCell>
        <mxCell id="ICeZ7vTdWkQgAfXyAcjh-6" value="&lt;h5 style=&quot;&quot;&gt;&lt;br&gt;&lt;/h5&gt;" style="ellipse;whiteSpace=wrap;html=1;aspect=fixed;strokeColor=#000000;strokeWidth=10;fillColor=#ffffff;gradientColor=none;align=center;verticalAlign=top;fontSize=12;spacingTop=12;" vertex="1" parent="ICeZ7vTdWkQgAfXyAcjh-1">
          <mxGeometry x="4" y="25" width="30" height="30" as="geometry" />
        </mxCell>
        <mxCell id="ICeZ7vTdWkQgAfXyAcjh-8" value="" style="group;strokeColor=none;strokeWidth=1;fontSize=18;fontStyle=1" vertex="1" connectable="0" parent="1">
          <mxGeometry x="50" y="240" width="80" height="80" as="geometry" />
        </mxCell>
        <mxCell id="ICeZ7vTdWkQgAfXyAcjh-9" value="" style="group;fillColor=none;strokeColor=none;" vertex="1" connectable="0" parent="ICeZ7vTdWkQgAfXyAcjh-8">
          <mxGeometry width="80" height="80" as="geometry" />
        </mxCell>
        <mxCell id="ICeZ7vTdWkQgAfXyAcjh-10" value="" style="whiteSpace=wrap;html=1;aspect=fixed;fillColor=none;strokeColor=none;" vertex="1" parent="ICeZ7vTdWkQgAfXyAcjh-8">
          <mxGeometry width="80" height="80" as="geometry" />
        </mxCell>
        <mxCell id="ICeZ7vTdWkQgAfXyAcjh-11" value="" style="endArrow=none;html=1;exitX=0;exitY=0.5;exitDx=0;exitDy=0;entryX=1;entryY=0.5;entryDx=0;entryDy=0;strokeWidth=10;fillColor=#e3c800;strokeColor=#000000;rounded=0;" edge="1" parent="ICeZ7vTdWkQgAfXyAcjh-8" source="ICeZ7vTdWkQgAfXyAcjh-10" target="ICeZ7vTdWkQgAfXyAcjh-10">
          <mxGeometry width="50" height="50" relative="1" as="geometry">
            <mxPoint x="160" y="110" as="sourcePoint" />
            <mxPoint x="210" y="60" as="targetPoint" />
          </mxGeometry>
        </mxCell>
        <mxCell id="ICeZ7vTdWkQgAfXyAcjh-62" value="&lt;font style=&quot;font-size: 18px;&quot;&gt;&lt;b style=&quot;&quot;&gt;Main&lt;/b&gt;&lt;/font&gt;" style="text;html=1;align=center;verticalAlign=middle;whiteSpace=wrap;rounded=0;" vertex="1" parent="ICeZ7vTdWkQgAfXyAcjh-8">
          <mxGeometry x="-9" y="2" width="60" height="30" as="geometry" />
        </mxCell>
        <mxCell id="ICeZ7vTdWkQgAfXyAcjh-12" value="" style="group;strokeColor=none;strokeWidth=1;fontSize=12;" vertex="1" connectable="0" parent="1">
          <mxGeometry x="130" y="240" width="80" height="80" as="geometry" />
        </mxCell>
        <mxCell id="ICeZ7vTdWkQgAfXyAcjh-13" value="" style="group;fillColor=none;strokeColor=none;" vertex="1" connectable="0" parent="ICeZ7vTdWkQgAfXyAcjh-12">
          <mxGeometry width="80" height="80" as="geometry" />
        </mxCell>
        <mxCell id="ICeZ7vTdWkQgAfXyAcjh-14" value="" style="whiteSpace=wrap;html=1;aspect=fixed;fillColor=none;strokeColor=none;" vertex="1" parent="ICeZ7vTdWkQgAfXyAcjh-12">
          <mxGeometry width="80" height="80" as="geometry" />
        </mxCell>
        <mxCell id="ICeZ7vTdWkQgAfXyAcjh-15" value="" style="endArrow=none;html=1;exitX=0;exitY=0.5;exitDx=0;exitDy=0;entryX=1;entryY=0.5;entryDx=0;entryDy=0;strokeWidth=10;fillColor=#e3c800;strokeColor=#000000;rounded=0;" edge="1" parent="ICeZ7vTdWkQgAfXyAcjh-12" source="ICeZ7vTdWkQgAfXyAcjh-14" target="ICeZ7vTdWkQgAfXyAcjh-14">
          <mxGeometry width="50" height="50" relative="1" as="geometry">
            <mxPoint x="160" y="110" as="sourcePoint" />
            <mxPoint x="210" y="60" as="targetPoint" />
          </mxGeometry>
        </mxCell>
        <mxCell id="ICeZ7vTdWkQgAfXyAcjh-16" value="" style="group;strokeColor=none;strokeWidth=1;fontSize=12;" vertex="1" connectable="0" parent="1">
          <mxGeometry x="210" y="240" width="80" height="80" as="geometry" />
        </mxCell>
        <mxCell id="ICeZ7vTdWkQgAfXyAcjh-17" value="" style="group;fillColor=none;strokeColor=none;" vertex="1" connectable="0" parent="ICeZ7vTdWkQgAfXyAcjh-16">
          <mxGeometry width="80" height="80" as="geometry" />
        </mxCell>
        <mxCell id="ICeZ7vTdWkQgAfXyAcjh-18" value="" style="whiteSpace=wrap;html=1;aspect=fixed;fillColor=none;strokeColor=none;" vertex="1" parent="ICeZ7vTdWkQgAfXyAcjh-16">
          <mxGeometry width="80" height="80" as="geometry" />
        </mxCell>
        <mxCell id="ICeZ7vTdWkQgAfXyAcjh-19" value="" style="endArrow=none;html=1;exitX=0;exitY=0.5;exitDx=0;exitDy=0;entryX=1;entryY=0.5;entryDx=0;entryDy=0;strokeWidth=10;fillColor=#e3c800;strokeColor=#000000;rounded=0;" edge="1" parent="ICeZ7vTdWkQgAfXyAcjh-16" source="ICeZ7vTdWkQgAfXyAcjh-18" target="ICeZ7vTdWkQgAfXyAcjh-18">
          <mxGeometry width="50" height="50" relative="1" as="geometry">
            <mxPoint x="160" y="110" as="sourcePoint" />
            <mxPoint x="210" y="60" as="targetPoint" />
          </mxGeometry>
        </mxCell>
        <mxCell id="ICeZ7vTdWkQgAfXyAcjh-20" value="" style="group;strokeColor=none;strokeWidth=1;fontSize=12;" vertex="1" connectable="0" parent="1">
          <mxGeometry x="360" y="240" width="80" height="80" as="geometry" />
        </mxCell>
        <mxCell id="ICeZ7vTdWkQgAfXyAcjh-21" value="" style="group;fillColor=none;strokeColor=none;" vertex="1" connectable="0" parent="ICeZ7vTdWkQgAfXyAcjh-20">
          <mxGeometry width="80" height="80" as="geometry" />
        </mxCell>
        <mxCell id="ICeZ7vTdWkQgAfXyAcjh-22" value="" style="whiteSpace=wrap;html=1;aspect=fixed;fillColor=none;strokeColor=none;" vertex="1" parent="ICeZ7vTdWkQgAfXyAcjh-20">
          <mxGeometry width="80" height="80" as="geometry" />
        </mxCell>
        <mxCell id="ICeZ7vTdWkQgAfXyAcjh-23" value="" style="endArrow=none;html=1;exitX=0;exitY=0.5;exitDx=0;exitDy=0;entryX=1;entryY=0.5;entryDx=0;entryDy=0;strokeWidth=10;fillColor=#e3c800;strokeColor=#000000;rounded=0;" edge="1" parent="ICeZ7vTdWkQgAfXyAcjh-20" source="ICeZ7vTdWkQgAfXyAcjh-22" target="ICeZ7vTdWkQgAfXyAcjh-22">
          <mxGeometry width="50" height="50" relative="1" as="geometry">
            <mxPoint x="160" y="110" as="sourcePoint" />
            <mxPoint x="210" y="60" as="targetPoint" />
          </mxGeometry>
        </mxCell>
        <mxCell id="ICeZ7vTdWkQgAfXyAcjh-24" value="" style="group;strokeColor=none;strokeWidth=1;fontSize=12;" vertex="1" connectable="0" parent="1">
          <mxGeometry x="440" y="240" width="80" height="80" as="geometry" />
        </mxCell>
        <mxCell id="ICeZ7vTdWkQgAfXyAcjh-25" value="" style="group;fillColor=none;strokeColor=none;" vertex="1" connectable="0" parent="ICeZ7vTdWkQgAfXyAcjh-24">
          <mxGeometry width="80" height="80" as="geometry" />
        </mxCell>
        <mxCell id="ICeZ7vTdWkQgAfXyAcjh-26" value="" style="whiteSpace=wrap;html=1;aspect=fixed;fillColor=none;strokeColor=none;" vertex="1" parent="ICeZ7vTdWkQgAfXyAcjh-24">
          <mxGeometry width="80" height="80" as="geometry" />
        </mxCell>
        <mxCell id="ICeZ7vTdWkQgAfXyAcjh-27" value="" style="endArrow=none;html=1;exitX=0;exitY=0.5;exitDx=0;exitDy=0;entryX=1;entryY=0.5;entryDx=0;entryDy=0;strokeWidth=10;fillColor=#e3c800;strokeColor=#000000;rounded=0;" edge="1" parent="ICeZ7vTdWkQgAfXyAcjh-24" source="ICeZ7vTdWkQgAfXyAcjh-26" target="ICeZ7vTdWkQgAfXyAcjh-26">
          <mxGeometry width="50" height="50" relative="1" as="geometry">
            <mxPoint x="160" y="110" as="sourcePoint" />
            <mxPoint x="210" y="60" as="targetPoint" />
          </mxGeometry>
        </mxCell>
        <mxCell id="ICeZ7vTdWkQgAfXyAcjh-28" value="" style="group;strokeColor=none;strokeWidth=1;fontSize=12;" vertex="1" connectable="0" parent="1">
          <mxGeometry x="520" y="240" width="80" height="80" as="geometry" />
        </mxCell>
        <mxCell id="ICeZ7vTdWkQgAfXyAcjh-29" value="" style="group;fillColor=none;strokeColor=none;" vertex="1" connectable="0" parent="ICeZ7vTdWkQgAfXyAcjh-28">
          <mxGeometry width="80" height="80" as="geometry" />
        </mxCell>
        <mxCell id="ICeZ7vTdWkQgAfXyAcjh-30" value="" style="whiteSpace=wrap;html=1;aspect=fixed;fillColor=none;strokeColor=none;" vertex="1" parent="ICeZ7vTdWkQgAfXyAcjh-28">
          <mxGeometry width="80" height="80" as="geometry" />
        </mxCell>
        <mxCell id="ICeZ7vTdWkQgAfXyAcjh-31" value="" style="endArrow=none;html=1;exitX=0;exitY=0.5;exitDx=0;exitDy=0;entryX=1;entryY=0.5;entryDx=0;entryDy=0;strokeWidth=10;fillColor=#e3c800;strokeColor=#000000;rounded=0;" edge="1" parent="ICeZ7vTdWkQgAfXyAcjh-28" source="ICeZ7vTdWkQgAfXyAcjh-30" target="ICeZ7vTdWkQgAfXyAcjh-30">
          <mxGeometry width="50" height="50" relative="1" as="geometry">
            <mxPoint x="160" y="110" as="sourcePoint" />
            <mxPoint x="210" y="60" as="targetPoint" />
          </mxGeometry>
        </mxCell>
        <mxCell id="ICeZ7vTdWkQgAfXyAcjh-32" value="" style="group;strokeColor=none;strokeWidth=1;fontSize=12;" vertex="1" connectable="0" parent="1">
          <mxGeometry x="600" y="240" width="80" height="80" as="geometry" />
        </mxCell>
        <mxCell id="ICeZ7vTdWkQgAfXyAcjh-33" value="" style="group;fillColor=none;strokeColor=none;" vertex="1" connectable="0" parent="ICeZ7vTdWkQgAfXyAcjh-32">
          <mxGeometry width="80" height="80" as="geometry" />
        </mxCell>
        <mxCell id="ICeZ7vTdWkQgAfXyAcjh-34" value="" style="whiteSpace=wrap;html=1;aspect=fixed;fillColor=none;strokeColor=none;" vertex="1" parent="ICeZ7vTdWkQgAfXyAcjh-32">
          <mxGeometry width="80" height="80" as="geometry" />
        </mxCell>
        <mxCell id="ICeZ7vTdWkQgAfXyAcjh-35" value="" style="endArrow=none;html=1;exitX=0;exitY=0.5;exitDx=0;exitDy=0;entryX=1;entryY=0.5;entryDx=0;entryDy=0;strokeWidth=10;fillColor=#e3c800;strokeColor=#000000;rounded=0;" edge="1" parent="ICeZ7vTdWkQgAfXyAcjh-32" source="ICeZ7vTdWkQgAfXyAcjh-34" target="ICeZ7vTdWkQgAfXyAcjh-34">
          <mxGeometry width="50" height="50" relative="1" as="geometry">
            <mxPoint x="160" y="110" as="sourcePoint" />
            <mxPoint x="210" y="60" as="targetPoint" />
          </mxGeometry>
        </mxCell>
        <mxCell id="ICeZ7vTdWkQgAfXyAcjh-36" value="" style="group;strokeColor=none;strokeWidth=1;fontSize=12;" vertex="1" connectable="0" parent="1">
          <mxGeometry x="680" y="240" width="80" height="80" as="geometry" />
        </mxCell>
        <mxCell id="ICeZ7vTdWkQgAfXyAcjh-37" value="" style="group;fillColor=none;strokeColor=none;" vertex="1" connectable="0" parent="ICeZ7vTdWkQgAfXyAcjh-36">
          <mxGeometry width="80" height="80" as="geometry" />
        </mxCell>
        <mxCell id="ICeZ7vTdWkQgAfXyAcjh-38" value="" style="whiteSpace=wrap;html=1;aspect=fixed;fillColor=none;strokeColor=none;" vertex="1" parent="ICeZ7vTdWkQgAfXyAcjh-36">
          <mxGeometry width="80" height="80" as="geometry" />
        </mxCell>
        <mxCell id="ICeZ7vTdWkQgAfXyAcjh-39" value="" style="endArrow=none;html=1;exitX=0;exitY=0.5;exitDx=0;exitDy=0;entryX=1;entryY=0.5;entryDx=0;entryDy=0;strokeWidth=10;fillColor=#e3c800;strokeColor=#000000;rounded=0;" edge="1" parent="ICeZ7vTdWkQgAfXyAcjh-36" source="ICeZ7vTdWkQgAfXyAcjh-38" target="ICeZ7vTdWkQgAfXyAcjh-38">
          <mxGeometry width="50" height="50" relative="1" as="geometry">
            <mxPoint x="160" y="110" as="sourcePoint" />
            <mxPoint x="210" y="60" as="targetPoint" />
          </mxGeometry>
        </mxCell>
        <mxCell id="ICeZ7vTdWkQgAfXyAcjh-40" value="" style="group;strokeColor=none;strokeWidth=1;fontSize=12;" vertex="1" connectable="0" parent="1">
          <mxGeometry x="760" y="240" width="80" height="80" as="geometry" />
        </mxCell>
        <mxCell id="ICeZ7vTdWkQgAfXyAcjh-41" value="" style="group;fillColor=none;strokeColor=none;" vertex="1" connectable="0" parent="ICeZ7vTdWkQgAfXyAcjh-40">
          <mxGeometry width="80" height="80" as="geometry" />
        </mxCell>
        <mxCell id="ICeZ7vTdWkQgAfXyAcjh-42" value="" style="whiteSpace=wrap;html=1;aspect=fixed;fillColor=none;strokeColor=none;" vertex="1" parent="ICeZ7vTdWkQgAfXyAcjh-40">
          <mxGeometry width="80" height="80" as="geometry" />
        </mxCell>
        <mxCell id="ICeZ7vTdWkQgAfXyAcjh-43" value="" style="endArrow=none;html=1;exitX=0;exitY=0.5;exitDx=0;exitDy=0;entryX=1;entryY=0.5;entryDx=0;entryDy=0;strokeWidth=10;fillColor=#e3c800;strokeColor=#000000;rounded=0;" edge="1" parent="ICeZ7vTdWkQgAfXyAcjh-40" source="ICeZ7vTdWkQgAfXyAcjh-42" target="ICeZ7vTdWkQgAfXyAcjh-42">
          <mxGeometry width="50" height="50" relative="1" as="geometry">
            <mxPoint x="160" y="110" as="sourcePoint" />
            <mxPoint x="210" y="60" as="targetPoint" />
          </mxGeometry>
        </mxCell>
        <mxCell id="ICeZ7vTdWkQgAfXyAcjh-44" value="" style="group;strokeColor=none;strokeWidth=1;fontSize=12;" vertex="1" connectable="0" parent="1">
          <mxGeometry x="840" y="240" width="80" height="80" as="geometry" />
        </mxCell>
        <mxCell id="ICeZ7vTdWkQgAfXyAcjh-45" value="" style="group;fillColor=none;strokeColor=none;" vertex="1" connectable="0" parent="ICeZ7vTdWkQgAfXyAcjh-44">
          <mxGeometry width="80" height="80" as="geometry" />
        </mxCell>
        <mxCell id="ICeZ7vTdWkQgAfXyAcjh-46" value="" style="whiteSpace=wrap;html=1;aspect=fixed;fillColor=none;strokeColor=none;" vertex="1" parent="ICeZ7vTdWkQgAfXyAcjh-44">
          <mxGeometry width="80" height="80" as="geometry" />
        </mxCell>
        <mxCell id="ICeZ7vTdWkQgAfXyAcjh-47" value="" style="endArrow=none;html=1;exitX=0;exitY=0.5;exitDx=0;exitDy=0;entryX=1;entryY=0.5;entryDx=0;entryDy=0;strokeWidth=10;fillColor=#e3c800;strokeColor=#000000;rounded=0;" edge="1" parent="ICeZ7vTdWkQgAfXyAcjh-44" source="ICeZ7vTdWkQgAfXyAcjh-46" target="ICeZ7vTdWkQgAfXyAcjh-46">
          <mxGeometry width="50" height="50" relative="1" as="geometry">
            <mxPoint x="160" y="110" as="sourcePoint" />
            <mxPoint x="210" y="60" as="targetPoint" />
          </mxGeometry>
        </mxCell>
        <mxCell id="ICeZ7vTdWkQgAfXyAcjh-48" value="" style="group;strokeColor=none;strokeWidth=1;fontSize=12;" vertex="1" connectable="0" parent="1">
          <mxGeometry x="920" y="240" width="80" height="80" as="geometry" />
        </mxCell>
        <mxCell id="ICeZ7vTdWkQgAfXyAcjh-49" value="" style="group;fillColor=none;strokeColor=none;" vertex="1" connectable="0" parent="ICeZ7vTdWkQgAfXyAcjh-48">
          <mxGeometry width="80" height="80" as="geometry" />
        </mxCell>
        <mxCell id="ICeZ7vTdWkQgAfXyAcjh-50" value="" style="whiteSpace=wrap;html=1;aspect=fixed;fillColor=none;strokeColor=none;" vertex="1" parent="ICeZ7vTdWkQgAfXyAcjh-48">
          <mxGeometry width="80" height="80" as="geometry" />
        </mxCell>
        <mxCell id="ICeZ7vTdWkQgAfXyAcjh-51" value="" style="endArrow=none;html=1;exitX=0;exitY=0.5;exitDx=0;exitDy=0;entryX=1;entryY=0.5;entryDx=0;entryDy=0;strokeWidth=10;fillColor=#e3c800;strokeColor=#000000;rounded=0;" edge="1" parent="ICeZ7vTdWkQgAfXyAcjh-48" source="ICeZ7vTdWkQgAfXyAcjh-50" target="ICeZ7vTdWkQgAfXyAcjh-50">
          <mxGeometry width="50" height="50" relative="1" as="geometry">
            <mxPoint x="160" y="110" as="sourcePoint" />
            <mxPoint x="210" y="60" as="targetPoint" />
          </mxGeometry>
        </mxCell>
        <mxCell id="ICeZ7vTdWkQgAfXyAcjh-52" value="" style="group;strokeColor=none;strokeWidth=1;fontSize=12;" vertex="1" connectable="0" parent="1">
          <mxGeometry x="1000" y="240" width="80" height="80" as="geometry" />
        </mxCell>
        <mxCell id="ICeZ7vTdWkQgAfXyAcjh-53" value="" style="group;fillColor=none;strokeColor=none;" vertex="1" connectable="0" parent="ICeZ7vTdWkQgAfXyAcjh-52">
          <mxGeometry width="80" height="80" as="geometry" />
        </mxCell>
        <mxCell id="ICeZ7vTdWkQgAfXyAcjh-54" value="" style="group;strokeColor=none;" vertex="1" connectable="0" parent="ICeZ7vTdWkQgAfXyAcjh-52">
          <mxGeometry width="80" height="80" as="geometry" />
        </mxCell>
        <mxCell id="ICeZ7vTdWkQgAfXyAcjh-55" value="" style="whiteSpace=wrap;html=1;aspect=fixed;fillColor=none;strokeColor=none;" vertex="1" parent="ICeZ7vTdWkQgAfXyAcjh-52">
          <mxGeometry width="80" height="80" as="geometry" />
        </mxCell>
        <mxCell id="ICeZ7vTdWkQgAfXyAcjh-56" value="" style="endArrow=none;html=1;exitX=0;exitY=0.5;exitDx=0;exitDy=0;entryX=1;entryY=0.5;entryDx=0;entryDy=0;strokeWidth=10;fillColor=#e3c800;strokeColor=#000000;rounded=0;" edge="1" parent="ICeZ7vTdWkQgAfXyAcjh-52" source="ICeZ7vTdWkQgAfXyAcjh-55" target="ICeZ7vTdWkQgAfXyAcjh-55">
          <mxGeometry width="50" height="50" relative="1" as="geometry">
            <mxPoint x="160" y="110" as="sourcePoint" />
            <mxPoint x="210" y="60" as="targetPoint" />
          </mxGeometry>
        </mxCell>
        <mxCell id="ICeZ7vTdWkQgAfXyAcjh-57" value="&lt;h5 style=&quot;&quot;&gt;&lt;br&gt;&lt;/h5&gt;" style="ellipse;whiteSpace=wrap;html=1;aspect=fixed;strokeColor=#000000;strokeWidth=10;fillColor=#ffffff;gradientColor=none;align=center;verticalAlign=top;fontSize=12;spacingTop=12;" vertex="1" parent="ICeZ7vTdWkQgAfXyAcjh-52">
          <mxGeometry x="4" y="25" width="30" height="30" as="geometry" />
        </mxCell>
        <mxCell id="ICeZ7vTdWkQgAfXyAcjh-58" value="" style="group;strokeColor=none;strokeWidth=1;fontSize=12;" vertex="1" connectable="0" parent="1">
          <mxGeometry x="1080" y="240" width="80" height="80" as="geometry" />
        </mxCell>
        <mxCell id="ICeZ7vTdWkQgAfXyAcjh-59" value="" style="group;fillColor=none;strokeColor=none;" vertex="1" connectable="0" parent="ICeZ7vTdWkQgAfXyAcjh-58">
          <mxGeometry width="80" height="80" as="geometry" />
        </mxCell>
        <mxCell id="ICeZ7vTdWkQgAfXyAcjh-60" value="" style="whiteSpace=wrap;html=1;aspect=fixed;fillColor=none;strokeColor=none;" vertex="1" parent="ICeZ7vTdWkQgAfXyAcjh-58">
          <mxGeometry width="80" height="80" as="geometry" />
        </mxCell>
        <mxCell id="ICeZ7vTdWkQgAfXyAcjh-61" value="" style="endArrow=none;html=1;exitX=0;exitY=0.5;exitDx=0;exitDy=0;entryX=1;entryY=0.5;entryDx=0;entryDy=0;strokeWidth=10;fillColor=#e3c800;strokeColor=#000000;rounded=0;" edge="1" parent="ICeZ7vTdWkQgAfXyAcjh-58" source="ICeZ7vTdWkQgAfXyAcjh-60" target="ICeZ7vTdWkQgAfXyAcjh-60">
          <mxGeometry width="50" height="50" relative="1" as="geometry">
            <mxPoint x="160" y="110" as="sourcePoint" />
            <mxPoint x="210" y="60" as="targetPoint" />
          </mxGeometry>
        </mxCell>
        <mxCell id="ICeZ7vTdWkQgAfXyAcjh-63" value="&lt;b&gt;Create a feature branch&lt;/b&gt;" style="text;html=1;align=center;verticalAlign=middle;whiteSpace=wrap;rounded=0;fontSize=16;" vertex="1" parent="1">
          <mxGeometry x="230" y="210" width="160" height="30" as="geometry" />
        </mxCell>
      </root>
    </mxGraphModel>
  </diagram>
</mxfile>
